<mxfile host="app.diagrams.net" agent="Mozilla/5.0 (Windows NT 10.0; Win64; x64) AppleWebKit/537.36 (KHTML, like Gecko) Chrome/131.0.0.0 Safari/537.36" version="26.0.6">
  <diagram name="Page-1" id="yqwBohIPPezt6Fo8WngZ">
    <mxGraphModel dx="1434" dy="738" grid="1" gridSize="10" guides="1" tooltips="1" connect="1" arrows="1" fold="1" page="1" pageScale="1" pageWidth="850" pageHeight="1100" math="0" shadow="0">
      <root>
        <mxCell id="0" />
        <mxCell id="1" parent="0" />
        <mxCell id="wnvm4ppcIdoS1mzdK-IE-1" value="" style="rounded=0;whiteSpace=wrap;html=1;" vertex="1" parent="1">
          <mxGeometry x="50" y="180" width="730" height="120" as="geometry" />
        </mxCell>
        <mxCell id="wnvm4ppcIdoS1mzdK-IE-2" value="" style="rounded=0;whiteSpace=wrap;html=1;" vertex="1" parent="1">
          <mxGeometry x="50" y="300" width="730" height="790" as="geometry" />
        </mxCell>
        <mxCell id="wnvm4ppcIdoS1mzdK-IE-3" value="" style="rounded=0;whiteSpace=wrap;html=1;" vertex="1" parent="1">
          <mxGeometry x="50" y="100" width="730" height="80" as="geometry" />
        </mxCell>
        <mxCell id="wnvm4ppcIdoS1mzdK-IE-4" value="" style="rounded=0;whiteSpace=wrap;html=1;" vertex="1" parent="1">
          <mxGeometry x="50" y="20" width="730" height="80" as="geometry" />
        </mxCell>
        <mxCell id="wnvm4ppcIdoS1mzdK-IE-5" value="" style="rounded=0;whiteSpace=wrap;html=1;" vertex="1" parent="1">
          <mxGeometry x="170" y="350" width="500" height="250" as="geometry" />
        </mxCell>
        <mxCell id="wnvm4ppcIdoS1mzdK-IE-7" value="" style="rounded=0;whiteSpace=wrap;html=1;" vertex="1" parent="1">
          <mxGeometry x="170" y="600" width="500" height="250" as="geometry" />
        </mxCell>
        <mxCell id="wnvm4ppcIdoS1mzdK-IE-8" value="" style="rounded=0;whiteSpace=wrap;html=1;" vertex="1" parent="1">
          <mxGeometry x="170" y="850" width="500" height="240" as="geometry" />
        </mxCell>
      </root>
    </mxGraphModel>
  </diagram>
</mxfile>
